<?xml version="1.0" standalone="no"?>
<!DOCTYPE svg PUBLIC "-//W3C//DTD SVG 20010904//EN"
 "http://www.w3.org/TR/2001/REC-SVG-20010904/DTD/svg10.dtd">
<svg version="1.0" xmlns="http://www.w3.org/2000/svg"
 width="512.000000pt" height="512.000000pt" viewBox="0 0 512.000000 512.000000"
 preserveAspectRatio="xMidYMid meet">
<metadata>
Created by potrace 1.14, written by Peter Selinger 2001-2017
</metadata>
<g transform="translate(0.000000,512.000000) scale(0.100000,-0.100000)"
fill="#000000" stroke="none">
<path d="M2546 4028 c-10 -62 -20 -122 -23 -133 -2 -11 -6 -36 -9 -55 -3 -19
-19 -112 -35 -206 -15 -95 -31 -187 -33 -205 -3 -19 -7 -45 -10 -59 -4 -21
-31 -182 -41 -245 -10 -64 -32 -196 -39 -235 -3 -14 -8 -43 -11 -65 -4 -22 -9
-53 -11 -70 -3 -16 -7 -41 -9 -55 -7 -44 -15 -93 -25 -145 -5 -27 -12 -68 -15
-90 -5 -36 -13 -86 -31 -185 -3 -19 -7 -44 -9 -55 -1 -11 -10 -65 -19 -120 -9
-55 -19 -116 -22 -135 -2 -19 -9 -55 -14 -80 -5 -25 -12 -65 -16 -90 -3 -25
-8 -54 -10 -65 -2 -11 -19 -117 -39 -235 -19 -118 -37 -226 -40 -240 -2 -13
-7 -42 -10 -65 -10 -70 -16 -99 -21 -117 -4 -13 8 -18 68 -29 40 -6 82 -13 93
-15 11 -1 88 -14 171 -28 84 -14 156 -26 161 -26 9 0 20 51 39 175 3 17 12 68
20 115 8 47 16 99 19 115 3 17 8 46 11 65 3 19 8 49 11 65 2 17 11 71 20 120
8 50 17 104 20 120 2 17 15 93 28 170 14 77 27 158 30 180 4 22 38 229 76 460
39 231 72 432 74 448 3 15 7 41 10 57 3 17 7 42 9 58 3 15 12 70 21 122 9 52
18 106 20 120 2 14 11 68 20 120 9 52 18 106 20 120 2 14 13 81 25 150 12 69
23 139 26 155 2 17 9 54 14 84 6 30 9 55 7 57 -1 1 -22 5 -47 9 -25 3 -52 8
-60 10 -8 2 -33 7 -55 10 -23 3 -52 7 -65 10 -13 3 -42 7 -65 10 -22 4 -78 13
-124 21 -46 8 -84 14 -85 14 -1 0 -10 -51 -20 -112z"/>
<path d="M712 3274 l-712 -714 716 -716 716 -716 25 24 c85 79 323 325 324
333 0 6 -240 250 -532 543 l-533 532 532 533 c293 292 533 535 535 539 2 8
-343 359 -352 357 -3 0 -327 -322 -719 -715z"/>
<path d="M3510 3816 c-95 -95 -172 -177 -173 -181 0 -5 240 -248 534 -542
l533 -534 -537 -537 -537 -537 177 -177 c150 -151 179 -176 192 -165 8 6 331
328 718 714 l703 703 -715 715 c-393 393 -716 715 -718 715 -2 0 -82 -78 -177
-174z"/>
</g>
</svg>
